HIERARCHY
ROOT Hips
{
	OFFSET 0.00 0.00 0.00
	CHANNELS 6 Xposition Yposition Zposition Xrotation Yrotation Zrotation
	JOINT Spine
	{
		OFFSET 0.00000 7.06766 0.00000
		CHANNELS 3 Xrotation Yrotation Zrotation
		JOINT Head
		{
			OFFSET 0.00000 15.03989 0.00000
			CHANNELS 3 Xrotation Yrotation Zrotation
			End Site
			{
				OFFSET 0.00000 4.52755 0.00000
			}
		}
		JOINT LeftShoulder
		{
			OFFSET 0.00000 10.53037 0.00000
			CHANNELS 3 Xrotation Yrotation Zrotation
			JOINT LeftArm
			{
				OFFSET 7.02886 0.00000 0.00000
				CHANNELS 3 Xrotation Yrotation Zrotation
				JOINT LeftForeArm
				{
					OFFSET 10.79770 0.00000 0.00000
					CHANNELS 3 Yrotation Zrotation Xrotation
					JOINT LeftHand
					{
						OFFSET 7.90744 0.00000 0.00000
						CHANNELS 3 Xrotation Yrotation Zrotation
						JOINT LeftHandThumb1
						{
							OFFSET 0.00000 0.00000 0.00000
							CHANNELS 3 Xrotation Zrotation Yrotation
							End Site
							{
								OFFSET 0.00000 0.00000 3.93700
							}
						}
						End Site
						{
							OFFSET 3.93700 0.00000 0.00000
						}
					}
				}
			}
		}
		JOINT RightShoulder
		{
			OFFSET 0.00000 10.53037 0.00000
			CHANNELS 3 Xrotation Yrotation Zrotation
			JOINT RightArm
			{
				OFFSET -7.02886 0.00000 0.00000
				CHANNELS 3 Xrotation Yrotation Zrotation
				JOINT RightForeArm
				{
					OFFSET -10.79770 0.00000 0.00000
					CHANNELS 3 Yrotation Zrotation Xrotation
					JOINT RightHand
					{
						OFFSET -7.90744 0.00000 0.00000
						CHANNELS 3 Xrotation Yrotation Zrotation
						JOINT RightHandThumb1
						{
							OFFSET 0.00000 0.00000 0.00000
							CHANNELS 3 Xrotation Zrotation Yrotation
							End Site
							{
								OFFSET 0.00000 0.00000 3.93700
							}
						}
						End Site
						{
							OFFSET -3.93700 0.00000 0.00000
						}
					}
				}
			}
		}
	}
	JOINT LeftUpLeg
	{
		OFFSET 4.01300 0.00000 0.00000
		CHANNELS 3 Xrotation Yrotation Zrotation
		JOINT LeftLeg
		{
			OFFSET 0.00000 -16.89976 0.00000
			CHANNELS 3 Xrotation Yrotation Zrotation
			JOINT LeftFoot
			{
				OFFSET 0.00000 -17.38918 0.00000
				CHANNELS 3 Xrotation Yrotation Zrotation
				JOINT LeftToeBase
				{
					OFFSET 0.00000 -1.27456 4.75673
					CHANNELS 3 Xrotation Yrotation Zrotation
					End Site
					{
						OFFSET 0.00000 0.00000 2.95275
					}
				}
			}
		}
	}
	JOINT RightUpLeg
	{
		OFFSET -4.01300 0.00000 0.00000
		CHANNELS 3 Xrotation Yrotation Zrotation
		JOINT RightLeg
		{
			OFFSET 0.00000 -16.89976 0.00000
			CHANNELS 3 Xrotation Yrotation Zrotation
			JOINT RightFoot
			{
				OFFSET 0.00000 -17.38918 0.00000
				CHANNELS 3 Xrotation Yrotation Zrotation
				JOINT RightToeBase
				{
					OFFSET 0.00000 -1.27456 4.75673
					CHANNELS 3 Xrotation Yrotation Zrotation
					End Site
					{
						OFFSET 0.00000 0.00000 2.95275
					}
				}
			}
		}
	}
}
MOTION
Frames: 20
Frame Time: 0.008333
 19.2211 35.7463 -24.2030 169.8733 -11.9616 178.0054 -18.9037 -6.6283 -3.4262 7.5936 -11.8125 3.1992 -16.3716 13.9627 -5.4649 17.8456 -4.8697 -69.0542 -7.5029 -0.0000 2.9273 -0.0215 1.7242 0.7159 33.1476 -0.0000 26.2537 3.4997 -12.8638 -11.0138 -63.0292 -30.0295 2.1572 84.1348 0.0000 24.8866 3.4061 6.8069 -26.6642 32.8623 0.0000 -24.3270 -3.3669 3.7951 0.7853 -5.2196 0.0000 0.0000 -14.6402 26.3836 -1.1340 25.5119 -0.0000 0.0000 -0.5034 -17.6958 3.5117 -4.2879 -0.0000 -0.0000 -17.9256 -32.3259 -0.8835 21.7072 -0.0000 0.0000
 19.2245 35.7455 -24.2033 169.8371 -11.9100 177.9914 -18.9013 -6.7029 -3.4357 7.5828 -11.7573 3.2873 -16.3692 14.0364 -5.4149 17.8154 -4.9096 -69.0832 -7.4659 -0.0000 3.0038 -0.0145 1.6837 0.4943 33.1476 -0.0000 26.2537 3.9716 -13.1817 -10.4540 -62.8392 -30.8513 2.8276 84.9006 0.0000 24.9420 3.3412 6.6829 -26.6413 32.8623 0.0000 -24.3270 -3.3985 3.8179 0.8017 -5.2210 0.0000 -0.0000 -14.6505 26.4092 -1.1103 25.4355 -0.0000 0.0000 -0.5452 -17.6739 3.5229 -4.2745 0.0000 0.0000 -17.9046 -32.3592 -0.8391 21.6263 -0.0000 0.0000
 19.2281 35.7448 -24.2035 169.8027 -11.8573 177.9806 -18.8903 -6.7400 -3.4548 7.5684 -11.7066 3.4011 -16.3642 14.0963 -5.3561 17.7734 -4.9478 -69.1177 -7.4364 -0.0000 2.9372 -0.0192 1.6832 0.6543 33.1476 -0.0000 26.2537 4.3339 -13.4122 -9.8973 -62.5223 -31.7314 3.3897 85.6328 0.0000 24.8286 3.3217 6.6509 -26.6164 32.8623 0.0000 -24.3270 -3.4352 3.8615 0.8167 -5.2124 0.0000 0.0000 -14.6775 26.3936 -1.0792 25.4688 -0.0000 -0.0000 -0.5833 -17.6477 3.5350 -4.2786 0.0000 0.0000 -17.9187 -32.2838 -0.8948 21.6736 0.0000 -0.0000
 19.2315 35.7431 -24.2015 169.7929 -11.8273 177.9767 -18.8390 -6.8258 -3.4826 7.5319 -11.6347 3.5176 -16.3936 14.1831 -5.3107 17.7416 -4.9264 -69.1343 -7.4495 -0.0000 2.9888 -0.0205 1.6937 0.6929 33.1476 -0.0000 26.2537 4.8539 -13.6225 -9.2405 -62.2225 -32.5416 3.9345 86.3468 0.0000 24.6007 3.2796 6.5175 -26.7859 32.8623 0.0000 -24.3270 -3.4578 3.8701 0.8259 -5.1909 -0.0000 -0.0000 -14.7252 26.4039 -1.0060 25.5435 -0.0000 -0.0000 -0.5989 -17.6410 3.5428 -4.2764 -0.0000 -0.0000 -17.9351 -32.2476 -0.9305 21.7542 -0.0000 0.0000
 19.2342 35.7417 -24.2008 169.7740 -11.7876 177.9747 -18.7974 -6.8514 -3.5179 7.4837 -11.6108 3.6584 -16.4384 14.2502 -5.2700 17.7135 -4.8711 -69.1474 -7.4711 -0.0000 3.0623 -0.0213 1.6927 0.7217 33.1476 -0.0000 26.2537 5.2775 -13.8405 -8.5686 -61.8128 -33.3580 4.4545 87.0786 0.0000 24.3849 3.1813 6.2896 -26.9005 32.8623 0.0000 -24.3270 -3.4791 3.8869 0.8315 -5.1817 -0.0000 -0.0000 -14.7486 26.4068 -0.9564 25.5242 -0.0000 0.0000 -0.6238 -17.6167 3.5445 -4.2750 -0.0000 -0.0000 -17.9483 -32.2170 -0.9473 21.7748 -0.0000 0.0000
 19.2388 35.7401 -24.2008 169.7497 -11.7634 177.9644 -18.7585 -6.8751 -3.5544 7.4310 -11.6063 3.8102 -16.4694 14.3272 -5.2384 17.6727 -4.8501 -69.1458 -7.4941 -0.0000 3.1070 -0.0221 1.6710 0.7569 33.1476 -0.0000 26.2537 5.6850 -13.9986 -7.9215 -61.3251 -34.2846 4.9397 87.8018 0.0000 23.8785 3.1392 6.1754 -27.0137 32.8623 0.0000 -24.3270 -3.5056 3.8775 0.8471 -5.1764 0.0000 -0.0000 -14.7831 26.4237 -0.8991 25.5344 0.0000 -0.0000 -0.6409 -17.6110 3.5606 -4.2874 -0.0000 0.0000 -17.9491 -32.2005 -0.9462 21.7821 0.0000 -0.0000
 19.2428 35.7382 -24.2002 169.7246 -11.7307 177.9567 -18.7265 -6.8964 -3.5937 7.3720 -11.5787 3.9680 -16.5196 14.3870 -5.1980 17.6714 -4.7207 -69.1595 -7.6154 -0.0000 3.1774 -0.0246 1.7042 0.8268 33.1476 -0.0000 26.2537 6.0977 -14.1572 -7.2894 -60.7682 -35.2488 5.4955 88.4854 0.0000 23.5487 3.1442 6.1809 -27.0308 32.8623 0.0000 -24.3270 -3.5317 3.8680 0.8603 -5.1719 0.0000 0.0000 -14.8155 26.4487 -0.8394 25.5594 0.0000 -0.0000 -0.6645 -17.5815 3.5716 -4.2957 0.0000 0.0000 -17.9581 -32.1857 -0.9883 21.7259 0.0000 -0.0000
 19.2478 35.7365 -24.2005 169.6910 -11.7093 177.9453 -18.7077 -6.9157 -3.6395 7.3328 -11.5850 4.1226 -16.5428 14.4441 -5.1559 17.6638 -4.6350 -69.1723 -7.7441 -0.0000 3.2295 -0.0274 1.7454 0.8999 33.1476 -0.0000 26.2537 6.7576 -14.4895 -6.6175 -60.1258 -36.1682 6.3668 89.2480 0.0000 23.3987 3.0067 5.8928 -27.0941 32.8623 0.0000 -24.3270 -3.5671 3.8737 0.8761 -5.1699 -0.0000 -0.0000 -14.8499 26.4465 -0.7915 25.6008 0.0000 -0.0000 -0.6898 -17.5986 3.5890 -4.3046 0.0000 0.0000 -17.9633 -32.1573 -0.9914 21.7044 -0.0000 0.0000
 19.2531 35.7347 -24.2003 169.6754 -11.7045 177.9290 -18.6582 -6.9591 -3.6797 7.2819 -11.5948 4.2709 -16.5710 14.4957 -5.1180 17.6593 -4.5180 -69.1909 -7.8994 -0.0000 3.3298 -0.0282 1.7287 0.9351 33.1476 -0.0000 26.2537 7.1955 -14.7221 -6.0218 -59.4287 -37.1986 7.2020 89.9501 0.0000 23.3921 2.9605 5.8427 -26.9316 32.8623 0.0000 -24.3270 -3.5827 3.8705 0.8992 -5.1753 0.0000 0.0000 -14.8564 26.4408 -0.7636 25.5819 0.0000 0.0000 -0.6892 -17.5989 3.6149 -4.3243 0.0000 0.0000 -17.9787 -32.1430 -1.0362 21.8385 0.0000 0.0000
 19.2588 35.7329 -24.2010 169.6501 -11.6949 177.9158 -18.6194 -6.9650 -3.7310 7.2399 -11.6424 4.4310 -16.5884 14.5031 -5.0704 17.6737 -4.4056 -69.2248 -8.0921 -0.0000 3.3766 -0.0310 1.7575 1.0118 33.1476 -0.0000 26.2537 7.6766 -14.9989 -5.3977 -58.7255 -38.1991 8.1000 90.6108 0.0000 23.4187 2.9957 5.9738 -26.6948 32.8623 0.0000 -24.3270 -3.6019 3.8732 0.9176 -5.1886 -0.0000 -0.0000 -14.8804 26.4382 -0.7340 25.5886 0.0000 -0.0000 -0.7001 -17.5929 3.6354 -4.3422 -0.0000 -0.0000 -17.9866 -32.1290 -1.0475 21.9216 -0.0000 0.0000
 19.2647 35.7309 -24.2011 169.6290 -11.6961 177.8945 -18.5913 -6.9997 -3.7710 7.2501 -11.6305 4.5736 -16.5409 14.4575 -5.0466 17.6838 -4.2803 -69.2757 -8.3117 -0.0000 3.4092 -0.0345 1.7773 1.1117 33.1476 -0.0000 26.2537 8.1197 -15.2621 -4.7821 -57.9633 -39.1712 9.0614 91.2315 0.0000 23.6487 3.0162 6.0607 -26.5221 32.8623 0.0000 -24.3270 -3.6233 3.8779 0.9450 -5.1951 0.0000 -0.0000 -14.8952 26.4121 -0.6896 25.5849 -0.0000 -0.0000 -0.7009 -17.5981 3.6666 -4.3631 0.0000 0.0000 -17.9628 -32.1274 -1.0193 21.7542 -0.0000 0.0000
 19.2714 35.7285 -24.2023 169.5944 -11.6942 177.8680 -18.5738 -7.0387 -3.8137 7.2340 -11.5992 4.7305 -16.5065 14.4037 -4.9976 17.7179 -4.1384 -69.3439 -8.5517 -0.0000 3.4700 -0.0370 1.8078 1.1723 33.1476 -0.0000 26.2537 8.4346 -15.5070 -4.1666 -57.0682 -40.0687 10.0350 91.7563 0.0000 23.8810 3.0373 6.1011 -26.5304 32.8623 0.0000 -24.3270 -3.6430 3.8608 0.9756 -5.2257 -0.0000 0.0000 -14.9080 26.4092 -0.6340 25.5955 -0.0000 0.0000 -0.7155 -17.5810 3.7004 -4.3802 0.0000 0.0000 -17.9789 -32.1237 -1.0755 21.7712 0.0000 -0.0000
 19.2758 35.7265 -24.2033 169.5440 -11.6871 177.8414 -18.5823 -7.1006 -3.8475 7.2060 -11.5563 4.8580 -16.4427 14.3703 -4.9403 17.6977 -3.9748 -69.4349 -8.7282 -0.0000 3.6059 -0.0351 1.7618 1.1428 33.1476 -0.0000 26.2537 8.9045 -15.7636 -3.5210 -56.2573 -40.8998 11.1058 92.2389 0.0000 24.0294 3.0185 5.9945 -26.7904 32.8623 0.0000 -24.3270 -3.6781 3.9117 0.9973 -5.2591 0.0000 -0.0000 -14.9189 26.3660 -0.6261 25.6124 0.0000 -0.0000 -0.7528 -17.5702 3.7247 -4.3895 0.0000 0.0000 -17.9878 -32.1214 -1.0850 21.8702 -0.0000 0.0000
 19.2790 35.7240 -24.2020 169.5000 -11.7114 177.8099 -18.5725 -7.2090 -3.8704 7.1518 -11.5118 4.9561 -16.3908 14.3540 -4.8806 17.7007 -3.9146 -69.5341 -8.8746 -0.0000 3.6706 -0.0372 1.7766 1.2012 33.1476 -0.0000 26.2537 9.0968 -15.9748 -2.9452 -55.1305 -41.6884 12.2051 92.6514 0.0000 24.2470 2.9735 5.8064 -27.1783 32.8623 0.0000 -24.3270 -3.7171 3.9358 1.0206 -5.2836 -0.0000 -0.0000 -14.9356 26.3023 -0.5867 25.7057 -0.0000 -0.0000 -0.7832 -17.5730 3.7494 -4.3938 -0.0000 -0.0000 -18.0027 -32.1173 -1.1050 21.7985 -0.0000 0.0000
 19.2800 35.7229 -24.2017 169.4023 -11.7294 177.7709 -18.6544 -7.3176 -3.8824 7.1505 -11.4564 5.0183 -16.3037 14.3440 -4.8220 17.7155 -3.9110 -69.6387 -8.9769 -0.0000 3.7275 -0.0368 1.7529 1.2024 33.1476 -0.0000 26.2537 9.5671 -16.1702 -2.3103 -54.2911 -42.4670 13.2439 93.0164 0.0000 24.2794 2.9612 5.7434 -27.3347 32.8623 0.0000 -24.3270 -3.8012 3.9809 1.0368 -5.3185 0.0000 0.0000 -14.9276 26.2291 -0.5815 25.7119 -0.0000 0.0000 -0.8689 -17.5883 3.7671 -4.3933 0.0000 -0.0000 -18.0004 -32.1192 -1.0819 21.7600 0.0000 -0.0000
 19.2831 35.7207 -24.2034 169.3413 -11.7557 177.7239 -18.6831 -7.4265 -3.8823 7.1185 -11.4180 5.0808 -16.2387 14.3273 -4.7647 17.7310 -3.9161 -69.7351 -9.0646 -0.0000 3.7954 -0.0325 1.7678 1.0540 33.1476 -0.0000 26.2537 10.0073 -16.3431 -1.7236 -53.4027 -43.3037 14.3291 93.3207 0.0000 24.2595 2.9662 5.7119 -27.5027 32.8623 0.0000 -24.3270 -3.8418 3.9818 1.0700 -5.3644 -0.0000 0.0000 -14.9388 26.1983 -0.5302 25.7776 -0.0000 -0.0000 -0.9059 -17.5917 3.8061 -4.4018 -0.0000 -0.0000 -17.9932 -32.1257 -1.0898 21.8479 0.0000 -0.0000
 19.2865 35.7194 -24.2032 169.2695 -11.7864 177.6775 -18.7263 -7.5627 -3.8832 7.1035 -11.3880 5.1292 -16.2515 14.2970 -4.7089 17.8362 -3.8781 -69.8162 -9.1453 -0.0000 3.8771 -0.0309 1.7758 0.9970 33.1476 -0.0000 26.2537 10.4082 -16.4397 -1.1503 -52.3920 -44.1431 15.4017 93.6370 0.0000 24.1379 2.9153 5.5793 -27.6454 32.8623 0.0000 -24.3270 -3.9014 3.9705 1.1040 -5.4000 -0.0000 -0.0000 -14.9477 26.1744 -0.5071 25.8333 0.0000 -0.0000 -0.9621 -17.5901 3.8411 -4.4010 0.0000 0.0000 -17.9992 -32.1494 -1.0746 21.7908 0.0000 -0.0000
 19.2887 35.7179 -24.2038 169.2157 -11.8287 177.6401 -18.7492 -7.6986 -3.8885 7.0917 -11.3270 5.1851 -16.2340 14.2982 -4.6637 17.8945 -3.9517 -69.8818 -9.1628 -0.0000 3.8795 -0.0301 1.8095 0.9524 33.1476 -0.0000 26.2537 10.7663 -16.5256 -0.6650 -51.3363 -45.0565 16.5492 93.8967 0.0000 23.8855 2.9234 5.5771 -27.7203 32.8623 0.0000 -24.3270 -3.9359 3.9320 1.1289 -5.4463 0.0000 0.0000 -14.9358 26.1674 -0.4735 25.8149 -0.0000 0.0000 -0.9966 -17.6057 3.8681 -4.4056 -0.0000 -0.0000 -18.0103 -32.1689 -1.0836 21.8023 0.0000 -0.0000
 19.2904 35.7170 -24.2055 169.1783 -11.8746 177.6039 -18.7560 -7.8492 -3.8832 7.0815 -11.2633 5.2171 -16.1946 14.3134 -4.6362 17.9071 -4.0038 -69.9381 -9.1436 -0.0000 3.9370 -0.0283 1.8512 0.8758 33.1476 -0.0000 26.2537 11.2914 -16.6236 -0.1252 -50.3415 -45.8881 17.7826 94.1533 0.0000 23.6151 2.8606 5.3996 -27.9687 32.8623 0.0000 -24.3270 -3.9579 3.9067 1.1548 -5.4829 -0.0000 -0.0000 -14.9345 26.1381 -0.4657 25.8507 0.0000 -0.0000 -1.0147 -17.6124 3.8983 -4.4070 -0.0000 0.0000 -18.0062 -32.1915 -1.0880 21.7981 -0.0000 -0.0000
 19.2914 35.7165 -24.2070 169.1310 -11.9262 177.5735 -18.7752 -7.9954 -3.8908 7.0689 -11.2106 5.2734 -16.1886 14.3239 -4.6103 17.9448 -4.0288 -69.9804 -9.1150 -0.0000 3.9960 -0.0229 1.8861 0.6968 33.1476 -0.0000 26.2537 11.6543 -16.6959 0.2976 -49.2369 -46.8314 19.0176 94.3564 0.0000 23.5361 2.9357 5.5677 -27.8592 32.8623 0.0000 -24.3270 -3.9894 3.8881 1.1705 -5.5216 0.0000 -0.0000 -14.9112 26.1199 -0.4712 25.7928 0.0000 0.0000 -1.0447 -17.6262 3.9171 -4.4056 0.0000 -0.0000 -18.0217 -32.2294 -1.0966 21.7883 0.0000 -0.0000
